<svg xmlns="http://www.w3.org/2000/svg" xmlns:xlink="http://www.w3.org/1999/xlink" width="512" height="512" viewBox="0 0 512 512"><defs><clipPath id="b"><rect width="512" height="512"/></clipPath></defs><g id="a" clip-path="url(#b)"><path d="M403.51,247.992c12.189-23.721,13.5-45.9,3.546-63.137-10.316-17.868-31.605-28.033-59.944-28.622-20.81-.427-44.439,4.311-68.131,13.528,8.166-27.851,5.532-49.961-7.876-63.369-16.113-16.113-44.9-16.666-81.056-1.558-33.715,14.088-70.764,40.33-104.325,73.889C35.742,228.706,2.534,286.681.945,326.653A75.67,75.67,0,0,0,0,338.441c0,35.793,25.09,69.017,70.648,93.547C114.506,455.605,172.627,468.61,234.3,468.61s119.8-13.005,163.656-36.622c45.558-24.53,70.648-57.754,70.648-93.547C468.609,304.067,445.576,272.184,403.51,247.992Z" fill="#ea533b"/><path d="M260.338,459.932c-61.677,0-119.8-13.005-163.656-36.622-45.558-24.53-70.648-57.754-70.648-93.547a75.64,75.64,0,0,1,.945-11.787c1.589-39.973,34.8-97.947,84.78-147.93,33.227-33.226,69.87-59.27,103.314-73.458a157.912,157.912,0,0,0-25.023,8.245c-33.715,14.088-70.764,40.33-104.325,73.889C35.742,228.707,2.534,286.682.945,326.654A75.65,75.65,0,0,0,0,338.441c0,35.793,25.09,69.017,70.648,93.547C114.506,455.605,172.627,468.61,234.3,468.61c48.616,0,95.016-8.086,133.969-23.074C335.352,454.941,298.529,459.932,260.338,459.932Z" fill="#d93c1c"/><path d="M364.19,312.032c-2.568-29.565-22.081-55.61-54.944-73.338-31.681-17.091-72.3-24.49-114.382-20.835s-80.818,17.949-109.076,40.247c-29.314,23.131-44.045,52.151-41.476,81.715s22.082,55.61,54.946,73.338c26.389,14.236,58.976,21.748,93.447,21.747,6.913,0,13.9-.3,20.934-.913,42.079-3.654,80.817-17.948,109.075-40.246C352.029,370.616,366.758,341.6,364.19,312.032Z" fill="#fff"/><path d="M230.36,425.319c-7.029.611-14.021.913-20.934.913-34.471,0-67.059-7.511-93.447-21.747C83.116,386.756,63.6,360.711,61.033,331.147s12.161-58.584,41.476-81.715a163.968,163.968,0,0,1,18.665-12.687,173.238,173.238,0,0,0-35.388,21.361c-29.314,23.131-44.045,52.151-41.476,81.715s22.082,55.61,54.946,73.338c26.389,14.236,58.976,21.748,93.447,21.747,6.913,0,13.9-.3,20.934-.913,33.445-2.9,64.771-12.535,90.41-27.559C281.994,416.5,256.841,423.019,230.36,425.319Z" fill="#e5e5e5"/><path d="M286.65,312.533c-9.507-39.544-55.55-62.508-102.638-51.189s-77.661,52.7-68.156,92.249c4.682,19.473,18.156,35.492,37.943,45.105a92.3,92.3,0,0,0,40.355,9,104.239,104.239,0,0,0,24.339-2.918C265.582,393.462,296.157,352.08,286.65,312.533Z" fill="#333"/><circle cx="30.373" cy="30.373" r="30.373" transform="translate(147.525 321.084)" fill="#fff"/><path d="M373.152,117.153a13.017,13.017,0,0,0,0,26.034,47.783,47.783,0,0,1,47.729,47.729,13.017,13.017,0,0,0,26.034,0A73.848,73.848,0,0,0,373.152,117.153Z" fill="#ffa929"/><path d="M364.475,43.39c-3.261,0-6.564.108-9.817.322a17.356,17.356,0,0,0,2.278,34.638c2.5-.164,5.035-.248,7.539-.248A112.929,112.929,0,0,1,475.031,213.5a17.356,17.356,0,0,0,34.019,6.9A148.537,148.537,0,0,0,512,190.914C512,109.571,445.82,43.39,364.475,43.39Z" fill="#ffa929"/><circle cx="17.356" cy="17.356" r="17.356" transform="translate(216.949 303.729)" fill="#fff"/></g></svg>