<svg xmlns="http://www.w3.org/2000/svg" xmlns:xlink="http://www.w3.org/1999/xlink" width="512" height="512" viewBox="0 0 512 512"><defs><clipPath id="b"><rect width="512" height="512"/></clipPath></defs><g id="a" clip-path="url(#b)"><path d="M488.6,104.1c16.7,18.1,24.4,39.7,23.3,65.7V372.2q-.6,39.6-26.5,65.1c-17.2,17-39.1,25.9-65.5,26.7H92.02c-26.45-.8-48.21-9.8-65.28-27.2S.767,396.5,0,368.2V169.8c.767-26,9.682-47.6,26.74-65.7C43.81,87.75,65.57,78.77,92.02,78H121.4L96.05,52.19q-8.625-8.595-8.63-21.79T96.05,8.6Q104.675,0,117.9,0q13.2,0,21.9,8.6L213.1,78h88L375.6,8.6A31.539,31.539,0,0,1,398,0q13.2,0,21.9,8.6c5.7,5.737,8.6,13,8.6,21.8s-2.9,16.06-8.6,21.79L394.6,78h29.3c26.4.77,48,9.75,64.7,26.1Zm-38.8,69.7c-.4-9.6-3.7-17.4-10.7-23.5-5.2-6.1-14-9.4-22.7-9.8H96.05c-9.59.4-17.45,3.7-23.58,9.8s-9.4,13.9-9.78,23.5V368.2a31.927,31.927,0,0,0,9.78,23.5,32.233,32.233,0,0,0,23.58,9.8H416.4a31.263,31.263,0,0,0,23.3-9.8,34.836,34.836,0,0,0,10.1-23.5ZM185.5,216.5a33.919,33.919,0,0,1,10.1,23.2V273a34.334,34.334,0,0,1-9.8,23.2c-6.2,6.3-14,9.5-23.6,9.5s-17.5-3.2-23.6-9.5a34.334,34.334,0,0,1-9.8-23.2V239.7a33.919,33.919,0,0,1,10.1-23.2c6.3-6.3,13.2-9.6,23.3-10a33.868,33.868,0,0,1,23.3,10Zm191.5,0a33.919,33.919,0,0,1,10.1,23.2V273a34.334,34.334,0,0,1-9.8,23.2c-6.1,6.3-14,9.5-23.6,9.5s-17.4-3.2-23.6-9.5c-7-6.3-9.4-14-9.7-23.2V239.7a33.385,33.385,0,0,1,10-23.2,32.145,32.145,0,0,1,46.6,0Z" transform="translate(-0.003 24)" fill="#00a1d6"/></g></svg>