<svg xmlns="http://www.w3.org/2000/svg" xmlns:xlink="http://www.w3.org/1999/xlink" width="512" height="512" viewBox="0 0 512 512"><defs><radialGradient id="a" cx="0.5" cy="0.5" r="0.604" gradientTransform="matrix(0.707, -0.707, 0.828, 0.828, -0.268, 0.44)" gradientUnits="objectBoundingBox"><stop offset="0" stop-color="#9d1df2"/><stop offset="1" stop-color="#46268c"/></radialGradient><clipPath id="c"><rect width="512" height="512"/></clipPath></defs><g id="b" clip-path="url(#c)"><path d="M415.649,503.974a1591.823,1591.823,0,0,1-319.3,0A106.3,106.3,0,0,1,8.026,415.649a1591.834,1591.834,0,0,1,0-319.3A106.3,106.3,0,0,1,96.35,8.026a1591.837,1591.837,0,0,1,319.3,0,106.3,106.3,0,0,1,88.324,88.325,1591.833,1591.833,0,0,1,0,319.3,106.3,106.3,0,0,1-88.325,88.324Z" transform="translate(0 0)" fill="url(#a)"/><path d="M584.96-309.988v-1.662c.276,0,.705.134.805,0,.929-1.214,2.553-1.19,3.592-2,1.153-.9,2.591-.929,3.749-1.772.457-.333,1.162-.214,1.491-1.038.167-.386,1.024-.529,1.6-.7a11.816,11.816,0,0,0,3.877-2.029,28.6,28.6,0,0,1,4.258-2.382,7.772,7.772,0,0,0,2.6-1.748c1.924-2.243,4.582-3.572,6.964-5.239.667-.472,2.058-.324,2.334-.862.829-1.6,2.458-1.758,3.734-2.41a54.675,54.675,0,0,0,8.993-5.716,24.794,24.794,0,0,1,2.253-1.215,48.648,48.648,0,0,1,4.473-3.263c1.957-1.072,3.482-2.658,5.339-3.811.834-.519,1.915-.381,2.615-1.377a12.935,12.935,0,0,1,2.653-2.2c.072-.057.124-.186.2-.186,3.286-.4,4.644-3.992,7.759-4.687a1.783,1.783,0,0,0,.843-.614c2-2.334,4.763-3.658,7.2-5.4.476-.338,1.005-.672,1.481-1.062,3.058-2.548,6.126-5.068,9.379-7.383,2.3-1.638,4.853-3.048,6.7-5.316a10.322,10.322,0,0,1,2.1-1.586c.152-.1.338-.129.476-.229,1.772-1.291,3.563-2.558,5.306-3.9,1.2-.924,2.205-2.21,3.529-2.858,1.658-.829,2.386-2.705,4.206-3.21,1.191-1.781,3.358-2.239,4.892-3.644,1.886-1.734,4.092-3.144,5.954-4.944a6.657,6.657,0,0,1,1.877-1.467c1.6-.739,3.248-1.525,4.158-3.377.458-.934,2.034-1.258,2.534-2.234s1.358-1.253,1.986-1.906c.2-.2,5.978-5.325,13.6-11.994,7.259,6.754,20.12,18.234,21.549,18.748.142.041.282.089.419.143a7.117,7.117,0,0,0-2.143,1.762,8.031,8.031,0,0,1-2.967,2.206,1.336,1.336,0,0,0-.681.338,22.136,22.136,0,0,1-4.6,4.135,62.316,62.316,0,0,0-4.559,4.425,22.951,22.951,0,0,1-1.905,1.391,62.879,62.879,0,0,0-5.749,4.763c-.848.862-1.92.815-2.753,1.481-1.872,1.5-4.073,2.658-5.549,4.563-.581.762-1.681.733-2.077,1.848-.186.524-1.5.652-2.282.952a6.31,6.31,0,0,0-2.882,2.258,5.126,5.126,0,0,1-2.243,1.953c-.9.324-1.281,1.705-2.548,1.277-.186-.062-.562.376-.824.61-.724.652-1.61,1.191-2.258,1.82a22.31,22.31,0,0,1-7.74,5.468c-.71.276-1.214,1.2-1.791,1.705a4.568,4.568,0,0,1-1.905,1.315,4.284,4.284,0,0,0-2.3,1.21c-.557.486-1.439.586-2.044,1.029-1.391,1.024-2.667,2.124-4.249,3.406h-1.129l-3.477,2.644c-.879-.191-1.455.375-2.025.941-.669.664-1.329,1.329-2.458.769l-2.762,2.9a3.209,3.209,0,0,0-2.9,1.029,8.948,8.948,0,0,1-6.016,2.858c-.386.009-.767.348-1.153.534l-2.31,1.1a2.6,2.6,0,0,0-.9.477c-1.353,1.619-3.391,1.667-5.164,2.243-1.415.462-2.915.591-3.963,1.839a2.046,2.046,0,0,1-.924.419c-.91.31-1.986.343-2.753.691-.871.391-1.529,1.186-2.653,1.014-.1-.014-.219.634-.448.772-.581.348-1.238.567-1.853.857-1.1.5-2.3.6-3.334,1.429-.786.633-2.143.538-3.244.786a.921.921,0,0,0-.433.276,4.916,4.916,0,0,1-2.663,1.639c-.976.224-1.948.648-2.929.953-1.329.4-2.206,1.519-3.811,1.167-.324.414-1.091.41-1.229.591-1.415.438-2.548-.181-3.549.914a.786.786,0,0,1-.94.18.792.792,0,0,0-1.055.33c-.519.743-1.572.867-2.115,1.177-1.081.619-2.034.424-1.862.981a16.319,16.319,0,0,1-7.169,2.258,7.9,7.9,0,0,0-5.011,1.672c-.417-.268-1.886.017-3.453.3a14.669,14.669,0,0,1-3.663.383c-.981-.124-2.639-.429-3.206.476Zm237.5-64.366a5.69,5.69,0,0,0-4.577.033c-.2.091-.523-.05-.837-.192s-.631-.291-.778-.184c-.652.476-.952.419-1.615,0a2.21,2.21,0,0,0-1.265-.145,4.4,4.4,0,0,1-.884,0c-.719-.1-1.319-.476-1.986-.514a26.826,26.826,0,0,1-10.046-2.506,12.878,12.878,0,0,0-3.253-.819,20.5,20.5,0,0,1-5.583-1.905,6.751,6.751,0,0,0-2.958-.824c-1.653,0-2.81-1.629-4.525-1.162-1.019-1.163-2.634-1.2-3.892-2.034a12.793,12.793,0,0,0-4.763-1.839c-.977-.172-1.139-.31-1.815-1.629a5.433,5.433,0,0,1-4.454-1.758,19.8,19.8,0,0,0-5.916-3.834,9.586,9.586,0,0,1-2.382-1.615c-2.263-2.143-4.287-4.578-7.345-5.692-.476-.167-23.645-20.772-24.049-21.487a11.666,11.666,0,0,0-2.725-3.582c-2.072-1.639-3.277-3.987-4.887-6.007-1.224-1.543-1.762-3.682-3.887-4.43-.772-1.819-2.782-2.381-3.977-4.044.395-2.029-.638-3.62-2.215-4.887.052-.877-.129-1.658.6-2.353a4.551,4.551,0,0,0,.81-1.858c1.029-3.039-8.1-19.3-9.341-19.477a3.635,3.635,0,0,1-3.091-3.468,6.4,6.4,0,0,0-3.044-5.073,7.365,7.365,0,0,1-2.286-2.382,21.65,21.65,0,0,0-1.929-2.524c-.115-.143-.367-.257-.376-.4-.2-3.277-3.6-3.334-5.24-5.163-.185-.214-.733-.076-.953-.271-.61-.5-1.543-.358-1.939-1.429-.281-.781-1.429-1.224-2.186-1.867-.819-.729-1.572-1.538-2.381-2.272a30.308,30.308,0,0,0-3.434-3.02c-1.019-.671-1.572-2.058-2.306-3.139-.829-1.224-1.615-2.477-2.458-3.687a1.779,1.779,0,0,0-.848-.6,1.863,1.863,0,0,1-1.172-1.286c-.6-1.429-2.048-2.491-1.643-4.32.038-.176-.258-.429-.4-.648-1.081-1.658-1.081-1.653.747-2.682a2.3,2.3,0,0,0,.4-.381c2.453.786,3.668,3,5.373,4.654-.11,1.429,1.348,1.619,2,1.762,1.143.253,2.043.924,3.115,1.234.415.119.71.786,1.272.067.138-.176,1,.062,1.429.3a13.394,13.394,0,0,1,3.044,1.972,5.963,5.963,0,0,0,4.644,1.567c1.681,0,3.334-.233,5.068.419a3.605,3.605,0,0,0,3.4-.31,1.494,1.494,0,0,1,1.038-.128,11.8,11.8,0,0,0,1.987.476c.662,0,1.334-.514,1.982-.476.474.025.947.01,1.42,0a7.5,7.5,0,0,1,3.381.424,5.8,5.8,0,0,0,3.429-.171c1.062-.277,2.334.252,3.787.476.952.586.424,1.791.543,2.858-.71.476-1.038,1.362-2.177,1.458a1.948,1.948,0,0,0-1.719,2.082,22.009,22.009,0,0,0,.429,3.525,1.752,1.752,0,0,1-.248,1.734c-.21.324.267,1.062.372,1.629a7.53,7.53,0,0,1,0,1.253c1.553.347,2.148,1.529,2.2,3.039,0,.528-.391,1.143-.233,1.586a11.161,11.161,0,0,0,1.572,3.205,16.76,16.76,0,0,1,1.462,2.453,2.135,2.135,0,0,0,.857.991,4.708,4.708,0,0,1,2.553,2.529,2.582,2.582,0,0,0,1.853,1.429c1.062.191,1.606,1.148,1.991,2.382-.524.438,12.608,7.973,12.608,6.721l1.652-1.386h3.692c1.091,1,8.188,14.375,8.455,14.38,2.253.033,2.3.081,2.324,2.31,0,.477,8.845,8.293,9.369,9.05.443.619.477,1.629,1.043,2.02a25.486,25.486,0,0,1,2.453,2.582c.638.6,1.505,1.072,1.586,2.1l4.825,3.72c3.306,1.667,5.592,4.525,8.1,7.088.419.357,6.231,4.754,7.35,4.43.9.891,19.453,12.089,20.105,12.832.191.215.506.2.849.179a1.582,1.582,0,0,1,1.013.173,7.978,7.978,0,0,0,1.991,1.224,23.4,23.4,0,0,1,4.7,2.653,6.531,6.531,0,0,0,2.577,1.172c.9.143,1.372,1.529,2.6,1.057,1.391,1.072,3.334.777,4.73,2.005a5.845,5.845,0,0,0,2.706.753,37.92,37.92,0,0,1,6.254,1.62,3.513,3.513,0,0,0,1.905.028,3.6,3.6,0,0,1,2.031.266,4.346,4.346,0,0,0,1.618.324c1.176,1.3,2.739,1.043,4.249,1.124.762.038,1.8.743,2.206.448a1.253,1.253,0,0,1,1.4-.028,1.437,1.437,0,0,0,.985.166,2.272,2.272,0,0,1,2.3.443c.221.2.652.149,1.107.1a4.07,4.07,0,0,1,.8-.037,18.3,18.3,0,0,0,2.6-.007,10.372,10.372,0,0,1,4.669.484c.414.176,1.119-.315,1.848-.548l1.467,1.662c-.581.447-.348,1.391-1.429,1.781a58.716,58.716,0,0,0-5.8,2.691,13.592,13.592,0,0,1-3.477,1.586c-1.429.21-1.848,1.557-3.062,2.015a7.337,7.337,0,0,1-3.253.829,4.415,4.415,0,0,0-3.391,1.205,3.68,3.68,0,0,1-2.062.953,20.7,20.7,0,0,0-5.326,1.243,9.465,9.465,0,0,1-2.567.476,44.3,44.3,0,0,1-4.7,0,12.356,12.356,0,0,0-4.677.805,8.084,8.084,0,0,1-2.19.391A2.917,2.917,0,0,1,822.459-374.354ZM784.5-424.215c-.434-.443-.862-.9-1.286-1.343a30.033,30.033,0,0,0-7.507-6.287l-3.43-2.644a8.042,8.042,0,0,0-2.115-2.467l-.219-.186a6.441,6.441,0,0,1-.557-.638,14.976,14.976,0,0,0-1.429-1.581,7.3,7.3,0,0,0-.871-1.677,28.815,28.815,0,0,0-3.611-3.582c2.525-2.253,4.111-3.7,4.211-3.844.167-.238,6.726-5.716,6.726-5.716s18.457-17.4,19.6-17.967a9.424,9.424,0,0,0,2.267-1.843c1.6-1.534,3.148-3.115,4.706-4.687a67.13,67.13,0,0,1,8.35-7.245,1.587,1.587,0,0,0,.2-.2c3.491-3.31,7.064-6.578,10.479-10a20.162,20.162,0,0,0,2.553-3.906,17.82,17.82,0,0,1,3.558-4.33,3.926,3.926,0,0,1,2.553-1.2c.41-.009,1.015-.123,1.186-.4.743-1.224,2.005-1.9,2.958-2.858,2.834-2.872,6.068-5.287,9.15-7.878,1.563-1.315,3.173-2.568,4.74-3.873a4.105,4.105,0,0,1,3.177-1.023,7.81,7.81,0,0,0,4.763-1.153,5.184,5.184,0,0,1,2.822-.511,11.394,11.394,0,0,0,1.57-.061l.857,1.191c.343-.062.6-.029.671-.128,1.563-2.11,4.378-3.082,5.459-6.04l2.667.438c1.31-.8,2.839-1.634,4.244-2.634a18.483,18.483,0,0,0,2.229-2.22c.357-.362.667-.934,1.081-1.029.7-.157.719-.676.548-.986-.4-.734-.048-1.362,0-2.053.052-1.062,1.243-1.105,1.429-1.581.672-1.776,2.334-1.772,3.639-2.629s2.611-1.724,3.91-2.586l1.568-3.506v-.324l2.148-.953c.019-.214.067-.472.067-.734.023-.362-.086-.809.091-1.062.543-.781,2.02-.871,1.7-2.3l2.572-1.806a10.809,10.809,0,0,0,1.267-.952c.633-.628.657-1.743,1.9-1.981.791-.148,1.029-1.487,2.125-1.534.2-.009.391-.367.6-.553,1.148-1.014,2.263-2.024,3.53-3.153v-3.01c1.5-2.11,2.263-2.291,6.264-3.482a15.323,15.323,0,0,1-.657-2.172,15.938,15.938,0,0,1,0-2.353l1.962-1.305,5.473,3.287h2.325l1.339-1.605V-576a13.614,13.614,0,0,1,3.606.834c.724.4,1.057,1.51,1.739,2.582a4.729,4.729,0,0,1,1.166.045,3.2,3.2,0,0,0,2.645-.522.625.625,0,0,1,.31,0c.112.015.21.03.21,0a4.09,4.09,0,0,1,2.21-2.587c1.086-.338,2.01-.971,3.12-1.291,1.219,1.105,3.034.667,4.387,1.62.3.214,1.091-.291,1.691-.476-.4-.924-1.482-1.21-1.148-2.229h3.334c.052.372.1.734.133.953l1.505-.39v2.8a8.1,8.1,0,0,0-1.086,1.053c-.133.181.071.586-.038.8-.476.938-2.077,1.043-1.857,2.51-.838.624-1.639,1.338-2.529,1.906a2.434,2.434,0,0,1-1.505.319,4.386,4.386,0,0,0-2.539.6,1.5,1.5,0,0,0-1,1.429c.009.557-.429,1.105-.4,1.672a6.812,6.812,0,0,0,.667,1.805l1.4.1c-.043.476.09,1.262-.162,1.429-1.072.7-1.877,1.877-3.382,1.877-.447,0-1.286.467-1.286.719,0,1.519-1.219,2.134-1.777,2.786-1.529.481-2.768.848-3.987,1.262-.543.186-1.015.3-1.072,1.182-.114,1.677-1.372,2.448-2.91,2.9a6.075,6.075,0,0,0-2.281,1.134,3.547,3.547,0,0,1-2.31,1.172c-.286.009-.562.433-.81.643l.677,2c-1.038,1.824-2.877,2.658-4.054,4.206a25.338,25.338,0,0,1-4.092,4.115c-1.729,1.434-3.749,2.568-5.54,3.963-2.253,1.753-4.41,3.625-6.592,5.469-.562.476-.967,1.334-1.586,1.51-3.311.919-5.121,4.225-8.4,5.135a13.557,13.557,0,0,1-4.449,3.3c-.138.066-.357,0-.729,0a8.651,8.651,0,0,1-1.091,3.653,11.262,11.262,0,0,1-2.243,3.2c.1,3.063-1.667,4.968-4.049,6.4a18.786,18.786,0,0,0-2.748,2.048A16.4,16.4,0,0,1,868.048-500a20.785,20.785,0,0,0-5.687,4.287,22.1,22.1,0,0,1-4.434,3.335c-2.624,1.638-5.178,3.415-6.788,6.192a2.706,2.706,0,0,0-.323.953,4.4,4.4,0,0,1-1.991,3.563c-.943.781-1.143,2.267-2.424,2.734s-1.158,1.867-1.386,2.82c-.5,2.058-2.049,3.163-3.478,4.287a6.528,6.528,0,0,0-1.905,2.01c-.4.7-1.415,1.015-2.048,1.615-1.41,1.324-2.753,2.753-4.206,4.182a3.256,3.256,0,0,0-2.6.848,21.357,21.357,0,0,1-3.372,2.491c-.214.133-.524.267-.61.476-.814,2.067-2.81,2.782-4.425,3.934-.219,1.658-2.534,1.529-2.739,3.263-.61,0-15.057,11.856-16.285,12.9-.81.686-1.677,1.3-2.506,1.967s-1.339,1.705-2.505,1.981c-.315.072-.529.491-.791.753a61.852,61.852,0,0,1-7.144,6.092c-1.029.767-1.81,1.829-2.772,2.706s-1.977,1.7-3,2.5ZM933.437-561.753c.062.119.128.238.2.357.057-.062.181-.133.171-.181a1.734,1.734,0,0,0-.171-.372Z" transform="translate(-508.96 700.004)" fill="#fff"/><path d="M-275,340V300a4,4,0,0,1,4-4,4,4,0,0,1,4,4v40a4,4,0,0,1-4,4A4,4,0,0,1-275,340Zm110.536-27.474-20-34.641A4,4,0,0,1-183,272.42a4,4,0,0,1,5.464,1.464l20,34.641A4,4,0,0,1-159,313.989a3.979,3.979,0,0,1-2,.537A4,4,0,0,1-164.464,312.526ZM-383,313.989a4,4,0,0,1-1.463-5.464l20-34.641A4,4,0,0,1-359,272.42a4,4,0,0,1,1.464,5.465l-20,34.641a4,4,0,0,1-3.468,2A3.979,3.979,0,0,1-383,313.989Zm300.526-80.525-34.641-20A4,4,0,0,1-118.58,208a4,4,0,0,1,5.464-1.464l34.641,20A4,4,0,0,1-77.01,232a4,4,0,0,1-3.468,2A3.982,3.982,0,0,1-82.474,233.465ZM-464.99,232a4,4,0,0,1,1.464-5.464l34.641-20A4,4,0,0,1-423.42,208a4,4,0,0,1-1.464,5.464l-34.641,20a3.984,3.984,0,0,1-2,.536A4,4,0,0,1-464.99,232ZM-91,124a4,4,0,0,1-4-4,4,4,0,0,1,4-4h40a4,4,0,0,1,4,4,4,4,0,0,1-4,4Zm-400,0a4,4,0,0,1-4-4,4,4,0,0,1,4-4h40a4,4,0,0,1,4,4,4,4,0,0,1-4,4ZM-118.58,32a4,4,0,0,1,1.464-5.465l34.641-20A4,4,0,0,1-77.01,8a4,4,0,0,1-1.464,5.464l-34.641,20a3.981,3.981,0,0,1-2,.537A4,4,0,0,1-118.58,32Zm-310.3,1.463-34.641-20A4,4,0,0,1-464.99,8a4,4,0,0,1,5.464-1.464l34.641,20A4,4,0,0,1-423.42,32a4,4,0,0,1-3.468,2A3.977,3.977,0,0,1-428.884,33.464Zm64.42-67.348-20-34.642A4,4,0,0,1-383-73.99a4,4,0,0,1,5.465,1.464l20,34.641A4,4,0,0,1-359-32.421a3.981,3.981,0,0,1-2,.537A4,4,0,0,1-364.464-33.884ZM-183-32.421a4,4,0,0,1-1.464-5.464l20-34.641A4,4,0,0,1-159-73.99a4,4,0,0,1,1.464,5.464l-20,34.641a4,4,0,0,1-3.468,2A3.978,3.978,0,0,1-183-32.421ZM-275-60v-40a4,4,0,0,1,4-4,4,4,0,0,1,4,4v40a4,4,0,0,1-4,4A4,4,0,0,1-275-60Z" transform="translate(527 136)" fill="#fff"/></g></svg>